<?xml version="1.0" encoding="utf-8"?><svg id="C-OPEN" xmlns="http://www.w3.org/2000/svg" xmlns:xlink="http://www.w3.org/1999/xlink" viewBox="0 0 76.33 65.27"><defs><style>.cls-1{fill:#32b2ea;}.cls-2{fill:#1e86c6;}.cls-3{fill:#fff;}.cls-4{fill:url(#Namnlös_övertoning_33);}</style><linearGradient id="Namnlös_övertoning_33" x1="0.02" y1="5.52" x2="76.33" y2="5.52" gradientUnits="userSpaceOnUse"><stop offset="0" stop-color="#206760"/><stop offset="1" stop-color="#206760"/><stop offset="1" stop-color="#f7941e"/></linearGradient></defs><title>c-open</title><polygon class="cls-1" points="11.03 14.06 0 25.09 0 44.19 76.33 44.19 76.33 14.06 11.03 14.06"/><rect class="cls-2" y="47.2" width="76.33" height="18.08"/><path class="cls-3" d="M317.24,653.63a3.45,3.45,0,0,0,.6,0,3,3,0,0,0,.45-.14,2.13,2.13,0,0,0,.31-.18l.23-.19a1.62,1.62,0,0,1,.19-.13.33.33,0,0,1,.19-.06.39.39,0,0,1,.17,0,.21.21,0,0,1,.1.08l.73.87a4.14,4.14,0,0,1-1.44,1.1,4.55,4.55,0,0,1-1.89.37,3.81,3.81,0,0,1-1.56-.31,3.25,3.25,0,0,1-1.14-.85,3.56,3.56,0,0,1-.71-1.28,5.29,5.29,0,0,1-.24-1.62,6,6,0,0,1,.18-1.5,5.92,5.92,0,0,1,.5-1.32,5.45,5.45,0,0,1,.78-1.1,5.32,5.32,0,0,1,1-.82,5.11,5.11,0,0,1,1.19-.52,4.85,4.85,0,0,1,1.33-.18,4.54,4.54,0,0,1,.95.1,3.41,3.41,0,0,1,.78.28,2.73,2.73,0,0,1,.63.41,2.68,2.68,0,0,1,.47.54l-.72.84a.93.93,0,0,1-.18.16.49.49,0,0,1-.47,0l-.18-.12-.21-.17a1.13,1.13,0,0,0-.27-.16,2.22,2.22,0,0,0-.39-.13,2.44,2.44,0,0,0-.51-.05,2.57,2.57,0,0,0-1.1.25,2.74,2.74,0,0,0-.88.72,3.48,3.48,0,0,0-.58,1.12,4.83,4.83,0,0,0-.21,1.47,3.78,3.78,0,0,0,.14,1.06,2.55,2.55,0,0,0,.4.79,1.63,1.63,0,0,0,.59.49A1.72,1.72,0,0,0,317.24,653.63Z" transform="translate(-305.14 -621.46)"/><polygon class="cls-3" points="15.45 29.13 18.66 29.13 18.45 30.67 15.26 30.67 15.45 29.13"/><path class="cls-3" d="M331.42,650a3.4,3.4,0,0,0-.14-1,2.23,2.23,0,0,0-.4-.8,1.83,1.83,0,0,0-.65-.52,2,2,0,0,0-.86-.18,2.34,2.34,0,0,0-1.14.27,2.46,2.46,0,0,0-.87.74,3.61,3.61,0,0,0-.54,1.15,5.69,5.69,0,0,0-.18,1.49,3.75,3.75,0,0,0,.13,1,2.34,2.34,0,0,0,.39.79,1.88,1.88,0,0,0,.64.52,2.07,2.07,0,0,0,.88.18,2.49,2.49,0,0,0,1.14-.26,2.45,2.45,0,0,0,.86-.74,3.51,3.51,0,0,0,.55-1.15A5.33,5.33,0,0,0,331.42,650Zm2.13,0a5.68,5.68,0,0,1-.18,1.44,5.38,5.38,0,0,1-.49,1.29,5.54,5.54,0,0,1-.78,1.07,4.48,4.48,0,0,1-1,.83,5.1,5.1,0,0,1-1.24.53,5.24,5.24,0,0,1-1.39.19,4.15,4.15,0,0,1-1.65-.32,3.72,3.72,0,0,1-1.24-.88,4.07,4.07,0,0,1-.79-1.32,5.06,5.06,0,0,1-.26-1.63,6.17,6.17,0,0,1,.17-1.44,5.24,5.24,0,0,1,.5-1.29,5.49,5.49,0,0,1,.78-1.08,4.77,4.77,0,0,1,1-.82,5.19,5.19,0,0,1,1.23-.53,4.93,4.93,0,0,1,1.4-.19,4.07,4.07,0,0,1,1.64.32,3.61,3.61,0,0,1,1.24.89,3.79,3.79,0,0,1,.78,1.32A4.75,4.75,0,0,1,333.55,650Z" transform="translate(-305.14 -621.46)"/><path class="cls-3" d="M336.83,647.49l-.38,3h1a1.83,1.83,0,0,0,.75-.13,1.16,1.16,0,0,0,.49-.37,1.37,1.37,0,0,0,.27-.57,2.75,2.75,0,0,0,.09-.73,1.59,1.59,0,0,0-.08-.5.93.93,0,0,0-.61-.65,1.32,1.32,0,0,0-.55-.1Zm-.58,4.61-.38,3.13H333.8l1.14-9.29H338a4.19,4.19,0,0,1,1.41.21,2.6,2.6,0,0,1,1,.55,2.11,2.11,0,0,1,.56.83,3,3,0,0,1,.18,1,4.3,4.3,0,0,1-.23,1.41,2.94,2.94,0,0,1-.71,1.11,3.32,3.32,0,0,1-1.22.75,5,5,0,0,1-1.73.26Z" transform="translate(-305.14 -621.46)"/><polygon class="cls-3" points="42.68 26.08 39.24 26.08 38.96 28.32 41.59 28.32 41.39 29.87 38.77 29.87 38.48 32.17 41.95 32.17 41.74 33.77 36.2 33.77 37.34 24.48 42.88 24.48 42.68 26.08"/><path class="cls-3" d="M350.18,645.94l.23,0a.27.27,0,0,1,.16,0,.34.34,0,0,1,.14.09.71.71,0,0,1,.11.17l3.26,5.74c0-.15,0-.29,0-.43s0-.26,0-.38l.63-5.25h1.84l-1.15,9.29h-1.09a1,1,0,0,1-.4-.07.54.54,0,0,1-.27-.27l-3.25-5.73,0,.34c0,.11,0,.22,0,.31l-.63,5.42h-1.84l1.15-9.29Z" transform="translate(-305.14 -621.46)"/><path class="cls-3" d="M360.5,646.11l-.08.64h-1l-.39,3.12h-.76l.37-3.12h-1l.08-.64Zm2.17,2.09a2,2,0,0,1,.08.31l.07-.16.1-.15,1.21-2a.24.24,0,0,1,.1-.1.37.37,0,0,1,.16,0H365l-.45,3.76h-.68l.29-2.36.1-.45L363,649.21a.32.32,0,0,1-.29.17h-.11a.25.25,0,0,1-.24-.17l-.8-2.16v.46l-.29,2.36h-.67l.46-3.76h.65a.37.37,0,0,1,.16,0,.22.22,0,0,1,.09.1Z" transform="translate(-305.14 -621.46)"/><path class="cls-3" d="M315.78,675.3h.05l.06,0,.31.34a1.37,1.37,0,0,1-.52.4,1.64,1.64,0,0,1-.73.14,1.71,1.71,0,0,1-.7-.13,1.54,1.54,0,0,1-.53-.37,1.68,1.68,0,0,1-.33-.55,2.28,2.28,0,0,1-.11-.7,1.78,1.78,0,0,1,.13-.7,1.66,1.66,0,0,1,.37-.56,1.8,1.8,0,0,1,.56-.36,2.11,2.11,0,0,1,.73-.13,1.37,1.37,0,0,1,.36,0,1.5,1.5,0,0,1,.32.09,1.71,1.71,0,0,1,.27.14,1,1,0,0,1,.22.19l-.26.35-.07.07a.19.19,0,0,1-.09,0l-.09,0-.07,0-.1-.06-.12-.06a.62.62,0,0,0-.16,0,.72.72,0,0,0-.22,0,1,1,0,0,0-.39.07,1,1,0,0,0-.31.22,1.19,1.19,0,0,0-.2.35,1.25,1.25,0,0,0-.07.45,1.37,1.37,0,0,0,.07.47,1,1,0,0,0,.2.34.69.69,0,0,0,.28.21.86.86,0,0,0,.36.08h.2l.16,0,.15-.07.14-.1.06,0Z" transform="translate(-305.14 -621.46)"/><path class="cls-3" d="M317.55,674.88h.93l-.31-.94-.07-.21a2,2,0,0,1-.08-.26c0,.09,0,.18-.08.26l-.07.21Zm2.2,1.3h-.62a.33.33,0,0,1-.17,0,.38.38,0,0,1-.09-.13l-.2-.6h-1.3l-.21.6a.24.24,0,0,1-.09.12.28.28,0,0,1-.16,0h-.62l1.32-3.42h.82Z" transform="translate(-305.14 -621.46)"/><path class="cls-3" d="M320.45,672.76h.08l.07,0,0,0,.06.06,1.63,2.06a1.37,1.37,0,0,1,0-.19v-2h.7v3.42h-.42l-.15,0a.42.42,0,0,1-.13-.11l-1.61-2v.18a.86.86,0,0,1,0,.16v1.83H320v-3.42Z" transform="translate(-305.14 -621.46)"/><path class="cls-3" d="M326.15,674.47a1.35,1.35,0,0,0-.07-.46.94.94,0,0,0-.19-.34.73.73,0,0,0-.3-.22,1,1,0,0,0-.41-.07,1.07,1.07,0,0,0-.41.07.73.73,0,0,0-.3.22.94.94,0,0,0-.19.34,1.55,1.55,0,0,0,0,.92.86.86,0,0,0,.19.34.73.73,0,0,0,.3.22,1.07,1.07,0,0,0,.41.07,1,1,0,0,0,.41-.07.73.73,0,0,0,.3-.22.86.86,0,0,0,.19-.34A1.35,1.35,0,0,0,326.15,674.47Zm.81,0a1.73,1.73,0,0,1-.13.69,1.5,1.5,0,0,1-.36.56,1.57,1.57,0,0,1-.56.37,1.9,1.9,0,0,1-.73.13,2,2,0,0,1-.73-.13,1.66,1.66,0,0,1-.56-.37,1.5,1.5,0,0,1-.36-.56,1.9,1.9,0,0,1,0-1.38,1.58,1.58,0,0,1,.36-.56,2,2,0,0,1,.56-.37,2.2,2.2,0,0,1,.73-.13,2.11,2.11,0,0,1,.73.13,1.73,1.73,0,0,1,.56.38,1.46,1.46,0,0,1,.36.55A1.73,1.73,0,0,1,327,674.47Z" transform="translate(-305.14 -621.46)"/><path class="cls-3" d="M328.14,674.44h.41a.61.61,0,0,0,.45-.15.59.59,0,0,0,.13-.41.78.78,0,0,0,0-.22.46.46,0,0,0-.11-.16.42.42,0,0,0-.18-.11,1,1,0,0,0-.26,0h-.41Zm0,.6v1.14h-.8v-3.42h1.21a2.22,2.22,0,0,1,.62.08,1.37,1.37,0,0,1,.43.24.92.92,0,0,1,.24.35,1.13,1.13,0,0,1,.09.45,1.23,1.23,0,0,1-.09.47,1,1,0,0,1-.25.37,1,1,0,0,1-.43.23,1.82,1.82,0,0,1-.61.09Z" transform="translate(-305.14 -621.46)"/><polygon class="cls-3" points="27.41 51.29 27.41 51.91 26 51.91 26 52.7 27.08 52.7 27.08 53.29 26 53.29 26 54.1 27.41 54.1 27.41 54.72 25.2 54.72 25.2 51.29 27.41 51.29"/><path class="cls-3" d="M333.41,672.76h.09l.06,0,.06,0,.06.06,1.62,2.06c0-.07,0-.13,0-.19v-2H336v3.42h-.41l-.16,0a.4.4,0,0,1-.12-.11l-1.61-2c0,.06,0,.12,0,.18s0,.11,0,.16v1.83H333v-3.42Z" transform="translate(-305.14 -621.46)"/><path class="cls-3" d="M315.23,680.49l.09.19c0,.06.06.13.08.2a2.07,2.07,0,0,1,.08-.2l.1-.2.88-1.73,0-.06.06,0h.76v3.43h-.69v-2c0-.1,0-.2,0-.31l-.91,1.76a.43.43,0,0,1-.11.12.31.31,0,0,1-.17.05h-.1a.34.34,0,0,1-.17-.05.32.32,0,0,1-.11-.12l-.91-1.76c0,.05,0,.11,0,.16a.76.76,0,0,1,0,.15v2h-.7v-3.43h.76l.06,0,0,.06Z" transform="translate(-305.14 -621.46)"/><path class="cls-3" d="M318.88,680.75h.93l-.31-.94-.08-.21c0-.08-.05-.17-.08-.26,0,.09,0,.18-.07.26l-.08.22Zm2.19,1.31h-.61a.29.29,0,0,1-.17,0,.22.22,0,0,1-.09-.12l-.2-.6h-1.31l-.2.6a.19.19,0,0,1-.09.11.25.25,0,0,1-.17.06h-.62l1.33-3.43h.81Z" transform="translate(-305.14 -621.46)"/><path class="cls-3" d="M323.26,679.33a.19.19,0,0,1-.07.08.17.17,0,0,1-.1,0l-.12,0-.14-.08a.75.75,0,0,0-.18-.07.59.59,0,0,0-.23,0,.45.45,0,0,0-.33.1.33.33,0,0,0-.11.25.28.28,0,0,0,.06.18.71.71,0,0,0,.17.11,1.06,1.06,0,0,0,.25.09l.28.1.28.11a1.14,1.14,0,0,1,.25.18.84.84,0,0,1,.17.26,1,1,0,0,1,.06.36,1,1,0,0,1-.08.44,1,1,0,0,1-.24.37,1.12,1.12,0,0,1-.38.24,1.46,1.46,0,0,1-.52.08,1.23,1.23,0,0,1-.33,0,1.68,1.68,0,0,1-.32-.09l-.29-.14a1.54,1.54,0,0,1-.23-.18l.23-.38.07-.07.1,0a.33.33,0,0,1,.14,0l.17.1.2.1a.82.82,0,0,0,.28.05.55.55,0,0,0,.34-.1.35.35,0,0,0,.12-.3.27.27,0,0,0-.07-.19.37.37,0,0,0-.17-.13l-.24-.09-.28-.08-.28-.11a1.14,1.14,0,0,1-.25-.18.73.73,0,0,1-.17-.27,1.21,1.21,0,0,1-.07-.41,1,1,0,0,1,.08-.37,1,1,0,0,1,.23-.33,1.37,1.37,0,0,1,.37-.23,1.5,1.5,0,0,1,.5-.08,1.42,1.42,0,0,1,.3,0,1.23,1.23,0,0,1,.29.08l.25.11a.8.8,0,0,1,.21.15Z" transform="translate(-305.14 -621.46)"/><polygon class="cls-3" points="21.25 57.17 21.25 57.8 20.29 57.8 20.29 60.59 19.49 60.59 19.49 57.8 18.53 57.8 18.53 57.17 21.25 57.17"/><polygon class="cls-3" points="23.78 57.17 23.78 57.78 22.38 57.78 22.38 58.58 23.45 58.58 23.45 59.17 22.38 59.17 22.38 59.98 23.78 59.98 23.78 60.59 21.58 60.59 21.58 57.17 23.78 57.17"/><path class="cls-3" d="M330.16,680.24h.32a.79.79,0,0,0,.28,0,.4.4,0,0,0,.19-.11.42.42,0,0,0,.1-.17.78.78,0,0,0,0-.21.46.46,0,0,0-.15-.36.72.72,0,0,0-.46-.12h-.32Zm0,.55v1.27h-.79v-3.43h1.11a2.38,2.38,0,0,1,.64.08,1.18,1.18,0,0,1,.42.21.73.73,0,0,1,.25.33,1,1,0,0,1,.07.4.89.89,0,0,1-.18.59.87.87,0,0,1-.21.22,1.24,1.24,0,0,1-.3.17.38.38,0,0,1,.15.09.64.64,0,0,1,.13.15l.72,1.19h-.72a.29.29,0,0,1-.28-.15l-.57-1-.09-.09a.26.26,0,0,0-.14,0Z" transform="translate(-305.14 -621.46)"/><path class="cls-3" d="M334,681a.66.66,0,0,0,0,.21.57.57,0,0,0,.11.16.5.5,0,0,0,.14.1.64.64,0,0,0,.2,0,.92.92,0,0,0,.29,0,.85.85,0,0,0,.26-.11l-.79-.84a.63.63,0,0,0-.18.23A.58.58,0,0,0,334,681Zm.71-2.43a1.2,1.2,0,0,1,.4.06,1.09,1.09,0,0,1,.3.18.92.92,0,0,1,.19.25,1,1,0,0,1,.08.3l-.47.09h0a.15.15,0,0,1-.14-.1.52.52,0,0,0-.13-.18.25.25,0,0,0-.19-.07.32.32,0,0,0-.14,0l-.11.08a.37.37,0,0,0-.05.11.39.39,0,0,0,0,.14s0,.08,0,.12a.56.56,0,0,0,0,.12.6.6,0,0,0,.06.11l.12.14.85.89a2.64,2.64,0,0,0,.1-.3,2.87,2.87,0,0,0,.05-.31.21.21,0,0,1,0-.11.18.18,0,0,1,.11,0h.46a2,2,0,0,1-.1.64,1.69,1.69,0,0,1-.26.54l.72.76h-.81l-.08,0-.07,0-.07-.06-.15-.16a1.72,1.72,0,0,1-.49.24,1.69,1.69,0,0,1-.56.08,1.09,1.09,0,0,1-.4-.07.94.94,0,0,1-.35-.2,1.1,1.1,0,0,1-.25-.31,1,1,0,0,1-.09-.42.93.93,0,0,1,0-.29,1.26,1.26,0,0,1,.13-.26,1.45,1.45,0,0,1,.21-.22,1.78,1.78,0,0,1,.27-.17,1,1,0,0,1-.16-.33.93.93,0,0,1-.05-.32,1,1,0,0,1,.06-.35.8.8,0,0,1,.2-.28.83.83,0,0,1,.31-.2A1.18,1.18,0,0,1,334.68,678.6Z" transform="translate(-305.14 -621.46)"/><path class="cls-3" d="M339.62,679.33s-.05.07-.08.08a.15.15,0,0,1-.1,0l-.12,0-.14-.08-.17-.07a.59.59,0,0,0-.23,0,.49.49,0,0,0-.34.1.33.33,0,0,0-.11.25.29.29,0,0,0,.07.18.71.71,0,0,0,.17.11.92.92,0,0,0,.25.09l.28.1.28.11a1.08,1.08,0,0,1,.24.18.71.71,0,0,1,.18.26,1,1,0,0,1,.06.36,1.23,1.23,0,0,1-.08.44,1.31,1.31,0,0,1-.24.37,1.08,1.08,0,0,1-.39.24,1.39,1.39,0,0,1-.52.08,1.19,1.19,0,0,1-.32,0A1.68,1.68,0,0,1,338,682l-.29-.14-.24-.18.24-.38a.15.15,0,0,1,.07-.07l.1,0a.43.43,0,0,1,.14,0l.16.1a1,1,0,0,0,.21.1.78.78,0,0,0,.28.05.6.6,0,0,0,.34-.1.38.38,0,0,0,.11-.3.27.27,0,0,0-.06-.19.43.43,0,0,0-.17-.13l-.25-.09-.28-.08-.28-.11a1.08,1.08,0,0,1-.24-.18.73.73,0,0,1-.17-.27,1,1,0,0,1-.07-.41,1,1,0,0,1,.08-.37,1,1,0,0,1,.23-.33,1.23,1.23,0,0,1,.37-.23,1.5,1.5,0,0,1,.5-.08,1.51,1.51,0,0,1,.3,0,1.38,1.38,0,0,1,.29.08l.25.11a1,1,0,0,1,.2.15Z" transform="translate(-305.14 -621.46)"/><polygon class="cls-3" points="35.91 59.96 37.18 59.96 37.18 60.59 35.12 60.59 35.12 57.17 35.91 57.17 35.91 59.96"/><path class="cls-3" d="M343.68,680.75h.94l-.32-.94-.07-.21c0-.08-.05-.17-.08-.26a2,2,0,0,1-.08.26,1.94,1.94,0,0,1-.07.22Zm2.2,1.31h-.61a.35.35,0,0,1-.18,0,.27.27,0,0,1-.09-.12l-.2-.6h-1.3l-.2.6a.31.31,0,0,1-.09.11.25.25,0,0,1-.17.06h-.62l1.32-3.43h.81Z" transform="translate(-305.14 -621.46)"/><path class="cls-3" d="M345.41,678.63h.64a.25.25,0,0,1,.16,0,.23.23,0,0,1,.1.12l.66,1.84c0,.08.06.16.09.26s.06.19.09.3c0-.11.05-.21.07-.3s.06-.18.09-.26l.66-1.84a.23.23,0,0,1,.09-.11.25.25,0,0,1,.17-.06h.64l-1.37,3.43h-.72Z" transform="translate(-305.14 -621.46)"/><polygon class="cls-3" points="46.22 57.17 46.22 57.78 44.82 57.78 44.82 58.58 45.89 58.58 45.89 59.17 44.82 59.17 44.82 59.98 46.22 59.98 46.22 60.59 44.02 60.59 44.02 57.17 46.22 57.17"/><polygon class="cls-4" points="65.29 0 0.02 0 11.06 11.05 76.33 11.05 76.33 11.05 65.29 0"/></svg>